<?xml version="1.0" encoding="utf-8"?>
<!DOCTYPE svg PUBLIC "-//W3C//DTD SVG 1.1//EN" "http://www.w3.org/Graphics/SVG/1.1/DTD/svg11.dtd">
<svg version="1.1" baseProfile="full"
 xmlns="http://www.w3.org/2000/svg"
 xmlns:xlink="http://www.w3.org/1999/xlink"
 xmlns:ev="http://www.w3.org/2001/xml-events" >
<path fill-rule="evenodd"  stroke="rgb( 0, 0, 0 )" stroke-width="2px" stroke-linecap="butt" stroke-linejoin="miter" fill-opacity="0.2" fill="rgb( 0, 0, 0 )"
 d="M21.000,17.000 C21.000,17.000 79.000,17.000 79.000,17.000 C81.209,17.000 83.000,18.791 83.000,21.000 C83.000,21.000 83.000,79.000 83.000,79.000 C83.000,81.209 81.209,83.000 79.000,83.000 C79.000,83.000 21.000,83.000 21.000,83.000 C18.791,83.000 17.000,81.209 17.000,79.000 C17.000,79.000 17.000,21.000 17.000,21.000 C17.000,18.791 18.791,17.000 21.000,17.000 Z"/>
<path fill-rule="evenodd"  stroke="rgb( 0, 0, 0 )" stroke-width="1px" stroke-linecap="butt" stroke-linejoin="miter" fill-opacity="0.678" fill="rgb( 0, 0, 0 )"
 d="M29.004,37.825 C29.004,37.825 37.906,39.828 42.911,35.305 C29.321,24.311 56.011,19.287 49.412,32.357 C54.018,37.075 57.087,30.394 61.051,30.444 C65.988,30.158 66.618,43.569 64.064,41.692 C48.951,35.129 56.109,62.735 65.873,48.441 C73.832,52.637 70.623,61.634 70.623,61.634 C70.623,61.634 58.372,60.697 56.717,64.155 C69.507,75.043 43.681,82.114 50.216,67.102 C48.733,66.671 44.214,65.395 37.744,70.444 C36.536,69.336 31.796,62.109 34.039,57.439 C49.325,66.303 44.249,36.703 31.186,50.502 C28.407,42.660 29.004,37.825 29.004,37.825 Z"/>
</svg>