<?xml version="1.0" encoding="utf-8"?>
<!DOCTYPE svg PUBLIC "-//W3C//DTD SVG 1.1//EN" "http://www.w3.org/Graphics/SVG/1.1/DTD/svg11.dtd">
<svg version="1.1" baseProfile="full"
 xmlns="http://www.w3.org/2000/svg"
 xmlns:xlink="http://www.w3.org/1999/xlink"
 xmlns:ev="http://www.w3.org/2001/xml-events" >
<path fill-rule="evenodd"  stroke="rgb( 0, 0, 0 )" stroke-width="2px" stroke-linecap="butt" stroke-linejoin="miter" fill-opacity="0.2" fill="rgb( 0, 0, 0 )"
 d="M21.000,17.000 C21.000,17.000 79.000,17.000 79.000,17.000 C81.209,17.000 83.000,18.791 83.000,21.000 C83.000,21.000 83.000,79.000 83.000,79.000 C83.000,81.209 81.209,83.000 79.000,83.000 C79.000,83.000 21.000,83.000 21.000,83.000 C18.791,83.000 17.000,81.209 17.000,79.000 C17.000,79.000 17.000,21.000 17.000,21.000 C17.000,18.791 18.791,17.000 21.000,17.000 Z"/>
<path fill-rule="evenodd"  stroke="rgb( 0, 0, 0 )" stroke-width="1px" stroke-linecap="butt" stroke-linejoin="miter" fill-opacity="0" fill="rgb( 0, 0, 0 )"
 d="M26.326,72.957 C26.326,72.957 26.326,66.500 26.326,66.500 C26.326,66.500 32.783,66.500 32.783,66.500 C32.783,66.500 32.783,72.957 32.783,72.957 C32.783,72.957 26.326,72.957 26.326,72.957 ZM26.326,56.457 C26.326,56.457 32.783,56.457 32.783,56.457 C32.783,56.457 32.783,62.913 32.783,62.913 C32.783,62.913 26.326,62.913 26.326,62.913 C26.326,62.913 26.326,56.457 26.326,56.457 ZM26.326,46.413 C26.326,46.413 32.783,46.413 32.783,46.413 C32.783,46.413 32.783,52.870 32.783,52.870 C32.783,52.870 26.326,52.870 26.326,52.870 C26.326,52.870 26.326,46.413 26.326,46.413 ZM26.326,36.370 C26.326,36.370 32.783,36.370 32.783,36.370 C32.783,36.370 32.783,42.826 32.783,42.826 C32.783,42.826 26.326,42.826 26.326,42.826 C26.326,42.826 26.326,36.370 26.326,36.370 ZM26.326,26.326 C26.326,26.326 32.783,26.326 32.783,26.326 C32.783,26.326 32.783,32.783 32.783,32.783 C32.783,32.783 26.326,32.783 26.326,32.783 C26.326,32.783 26.326,26.326 26.326,26.326 Z"/>
<path fill-rule="evenodd"  stroke="rgb( 0, 0, 0 )" stroke-width="1px" stroke-linecap="butt" stroke-linejoin="miter" fill="rgb( 0, 0, 0 )"
 d="M61.348,70.804 C61.348,70.804 61.348,70.087 61.348,70.087 C61.348,70.087 75.109,70.087 75.109,70.087 C75.109,70.087 75.109,70.804 75.109,70.804 C75.109,70.804 61.348,70.804 61.348,70.804 ZM67.087,60.043 C67.087,60.043 75.109,60.043 75.109,60.043 C75.109,60.043 75.109,60.761 75.109,60.761 C75.109,60.761 67.087,60.761 67.087,60.761 C67.087,60.761 67.087,60.043 67.087,60.043 ZM69.957,50.000 C69.957,50.000 75.109,50.000 75.109,50.000 C75.109,50.000 75.109,50.717 75.109,50.717 C75.109,50.717 69.957,50.717 69.957,50.717 C69.957,50.717 69.957,50.000 69.957,50.000 ZM64.935,39.957 C64.935,39.957 75.109,39.957 75.109,39.957 C75.109,39.957 75.109,40.674 75.109,40.674 C75.109,40.674 64.935,40.674 64.935,40.674 C64.935,40.674 64.935,39.957 64.935,39.957 ZM64.935,29.913 C64.935,29.913 75.109,29.913 75.109,29.913 C75.109,29.913 75.109,30.630 75.109,30.630 C75.109,30.630 64.935,30.630 64.935,30.630 C64.935,30.630 64.935,29.913 64.935,29.913 ZM48.187,39.957 C48.187,39.957 62.900,39.957 62.900,39.957 C62.900,39.957 62.900,40.674 62.900,40.674 C62.900,40.674 48.187,40.674 48.187,40.674 C48.187,40.674 48.187,39.957 48.187,39.957 ZM43.165,29.913 C43.165,29.913 62.900,29.913 62.900,29.913 C62.900,29.913 62.900,30.630 62.900,30.630 C62.900,30.630 43.165,30.630 43.165,30.630 C43.165,30.630 43.165,29.913 43.165,29.913 ZM37.804,29.913 C37.804,29.913 41.091,29.913 41.091,29.913 C41.091,29.913 41.091,30.630 41.091,30.630 C41.091,30.630 37.804,30.630 37.804,30.630 C37.804,30.630 37.804,29.913 37.804,29.913 ZM46.113,40.674 C46.113,40.674 37.804,40.674 37.804,40.674 C37.804,40.674 37.804,39.957 37.804,39.957 C37.804,39.957 46.113,39.957 46.113,39.957 C46.113,39.957 46.113,40.674 46.113,40.674 ZM54.722,50.717 C54.722,50.717 37.804,50.717 37.804,50.717 C37.804,50.717 37.804,50.000 37.804,50.000 C37.804,50.000 54.722,50.000 54.722,50.000 C54.722,50.000 54.722,50.717 54.722,50.717 ZM50.417,60.761 C50.417,60.761 37.804,60.761 37.804,60.761 C37.804,60.761 37.804,60.043 37.804,60.043 C37.804,60.043 50.417,60.043 50.417,60.043 C50.417,60.043 50.417,60.761 50.417,60.761 ZM46.830,70.804 C46.830,70.804 37.804,70.804 37.804,70.804 C37.804,70.804 37.804,70.087 37.804,70.087 C37.804,70.087 46.830,70.087 46.830,70.087 C46.830,70.087 46.830,70.804 46.830,70.804 ZM56.796,50.000 C56.796,50.000 67.922,50.000 67.922,50.000 C67.922,50.000 67.922,50.717 67.922,50.717 C67.922,50.717 56.796,50.717 56.796,50.717 C56.796,50.717 56.796,50.000 56.796,50.000 ZM52.491,60.043 C52.491,60.043 65.052,60.043 65.052,60.043 C65.052,60.043 65.052,60.761 65.052,60.761 C65.052,60.761 52.491,60.761 52.491,60.761 C52.491,60.761 52.491,60.043 52.491,60.043 ZM59.313,70.804 C59.313,70.804 48.904,70.804 48.904,70.804 C48.904,70.804 48.904,70.087 48.904,70.087 C48.904,70.087 59.313,70.087 59.313,70.087 C59.313,70.087 59.313,70.804 59.313,70.804 Z"/>
<path fill-rule="evenodd"  stroke="rgb( 255, 255, 255 )" stroke-width="1px" stroke-linecap="butt" stroke-linejoin="miter" fill="rgb( 255, 255, 255 )"
 d="M27.287,28.316 C27.287,28.316 28.943,29.196 28.943,29.196 C28.943,29.196 32.756,24.654 32.756,24.654 C33.114,24.200 33.782,24.130 34.249,24.498 C34.716,24.865 34.805,25.531 34.448,25.985 C34.448,25.985 29.062,32.065 29.062,32.065 C29.062,32.065 25.838,29.908 25.838,29.908 C25.399,29.508 25.367,28.827 25.767,28.388 C26.167,27.948 26.848,27.916 27.287,28.316 Z"/>
<path fill-rule="evenodd"  stroke="rgb( 255, 255, 255 )" stroke-width="1px" stroke-linecap="butt" stroke-linejoin="miter" fill="rgb( 255, 255, 255 )"
 d="M27.287,37.642 C27.287,37.642 28.943,38.522 28.943,38.522 C28.943,38.522 32.756,33.981 32.756,33.981 C33.114,33.527 33.782,33.456 34.249,33.824 C34.716,34.191 34.805,34.857 34.448,35.312 C34.448,35.312 29.062,41.391 29.062,41.391 C29.062,41.391 25.838,39.234 25.838,39.234 C25.399,38.834 25.367,38.153 25.767,37.714 C26.167,37.274 26.848,37.242 27.287,37.642 Z"/>
<path fill-rule="evenodd"  stroke="rgb( 255, 255, 255 )" stroke-width="1px" stroke-linecap="butt" stroke-linejoin="miter" fill="rgb( 255, 255, 255 )"
 d="M27.287,47.686 C27.287,47.686 28.943,48.565 28.943,48.565 C28.943,48.565 32.756,44.024 32.756,44.024 C33.114,43.570 33.782,43.500 34.249,43.867 C34.716,44.235 34.805,44.901 34.448,45.355 C34.448,45.355 29.062,51.435 29.062,51.435 C29.062,51.435 25.838,49.277 25.838,49.277 C25.399,48.877 25.367,48.197 25.767,47.757 C26.167,47.318 26.848,47.286 27.287,47.686 Z"/>
</svg>