<?xml version="1.0" encoding="utf-8"?>
<!DOCTYPE svg PUBLIC "-//W3C//DTD SVG 1.1//EN" "http://www.w3.org/Graphics/SVG/1.1/DTD/svg11.dtd">
<svg version="1.1" baseProfile="full"
 xmlns="http://www.w3.org/2000/svg"
 xmlns:xlink="http://www.w3.org/1999/xlink"
 xmlns:ev="http://www.w3.org/2001/xml-events" >
<path fill-rule="evenodd"  stroke="rgb( 29, 33, 37 )" stroke-width="3px" stroke-linecap="butt" stroke-linejoin="miter" fill-opacity="0.2" fill="rgb( 29, 33, 37 )"
 d="M19.333,14.000 C19.333,14.000 180.000,14.000 180.000,14.000 C181.473,14.000 182.667,15.194 182.667,16.667 C182.667,16.667 182.667,184.000 182.667,184.000 C182.667,185.473 181.473,186.667 180.000,186.667 C180.000,186.667 19.333,186.667 19.333,186.667 C17.861,186.667 16.667,185.473 16.667,184.000 C16.667,184.000 16.667,16.667 16.667,16.667 C16.667,15.194 17.861,14.000 19.333,14.000 Z"/>
<path fill-rule="evenodd"  stroke="rgb( 29, 33, 37 )" stroke-width="10px" stroke-linecap="butt" stroke-linejoin="miter" fill-opacity="0.2" fill="rgb( 29, 33, 37 )"
 d="M99.500,35.000 C134.018,35.000 162.000,62.982 162.000,97.500 C162.000,132.018 134.018,160.000 99.500,160.000 C64.982,160.000 37.000,132.018 37.000,97.500 C37.000,62.982 64.982,35.000 99.500,35.000 Z"/>
<path fill-rule="evenodd"  stroke="rgb( 29, 33, 37 )" stroke-width="3px" stroke-linecap="butt" stroke-linejoin="miter" fill="rgb( 29, 33, 37 )"
 d="M143.667,99.333 C143.667,99.333 143.667,96.000 143.667,96.000 C143.667,96.000 161.333,96.000 161.333,96.000 C161.333,96.000 161.333,99.333 161.333,99.333 C161.333,99.333 143.667,99.333 143.667,99.333 ZM98.333,141.333 C98.333,141.333 101.667,141.333 101.667,141.333 C101.667,141.333 101.667,159.000 101.667,159.000 C101.667,159.000 98.333,159.000 98.333,159.000 C98.333,159.000 98.333,141.333 98.333,141.333 ZM98.333,36.667 C98.333,36.667 101.667,36.667 101.667,36.667 C101.667,36.667 101.667,54.333 101.667,54.333 C101.667,54.333 98.333,54.333 98.333,54.333 C98.333,54.333 98.333,36.667 98.333,36.667 ZM39.000,96.000 C39.000,96.000 56.667,96.000 56.667,96.000 C56.667,96.000 56.667,99.333 56.667,99.333 C56.667,99.333 39.000,99.333 39.000,99.333 C39.000,99.333 39.000,96.000 39.000,96.000 Z"/>
<path fill-rule="evenodd"  stroke="rgb( 255, 255, 255 )" stroke-width="3px" stroke-linecap="butt" stroke-linejoin="miter" fill="rgb( 255, 255, 255 )"
 d="M117.000,55.866 C117.000,55.866 120.041,57.231 120.041,57.231 C120.041,57.231 98.757,104.675 98.757,104.675 C98.757,104.675 95.716,103.311 95.716,103.311 C95.716,103.311 117.000,55.866 117.000,55.866 Z"/>
<path fill-rule="evenodd"  stroke="rgb( 255, 255, 255 )" stroke-width="3px" stroke-linecap="butt" stroke-linejoin="miter" fill="rgb( 255, 255, 255 )"
 d="M94.986,92.573 C94.986,92.573 127.367,111.153 127.367,111.153 C127.367,111.153 125.708,114.045 125.708,114.045 C125.708,114.045 93.327,95.464 93.327,95.464 C93.327,95.464 94.986,92.573 94.986,92.573 Z"/>
</svg>