<?xml version="1.0" encoding="utf-8"?>
<!DOCTYPE svg PUBLIC "-//W3C//DTD SVG 1.1//EN" "http://www.w3.org/Graphics/SVG/1.1/DTD/svg11.dtd">
<svg version="1.1" baseProfile="full"
 xmlns="http://www.w3.org/2000/svg"
 xmlns:xlink="http://www.w3.org/1999/xlink"
 xmlns:ev="http://www.w3.org/2001/xml-events" >
<path fill-rule="evenodd"  stroke="rgb( 29, 33, 37 )" stroke-width="3px" stroke-linecap="butt" stroke-linejoin="miter" fill-opacity="0.2" fill="rgb( 29, 33, 37 )"
 d="M19.333,14.000 C19.333,14.000 180.000,14.000 180.000,14.000 C181.473,14.000 182.667,15.194 182.667,16.667 C182.667,16.667 182.667,184.000 182.667,184.000 C182.667,185.473 181.473,186.667 180.000,186.667 C180.000,186.667 19.333,186.667 19.333,186.667 C17.861,186.667 16.667,185.473 16.667,184.000 C16.667,184.000 16.667,16.667 16.667,16.667 C16.667,15.194 17.861,14.000 19.333,14.000 Z"/>
<path fill-rule="evenodd"  fill-opacity="0.161" fill="rgb( 29, 33, 37 )"
 d="M18.010,87.880 C18.010,87.880 18.010,86.882 18.010,86.882 C18.010,86.882 181.010,86.882 181.010,86.882 C181.010,86.882 181.010,87.880 181.010,87.880 C181.010,87.880 18.010,87.880 18.010,87.880 Z"/>
<path fill-rule="evenodd"  fill-opacity="0.161" fill="rgb( 29, 33, 37 )"
 d="M18.010,104.504 C18.010,104.504 18.010,103.506 18.010,103.506 C18.010,103.506 181.010,103.506 181.010,103.506 C181.010,103.506 181.010,104.504 181.010,104.504 C181.010,104.504 18.010,104.504 18.010,104.504 Z"/>
<path fill-rule="evenodd"  fill-opacity="0.161" fill="rgb( 29, 33, 37 )"
 d="M18.010,54.632 C18.010,54.632 18.010,53.634 18.010,53.634 C18.010,53.634 181.010,53.634 181.010,53.634 C181.010,53.634 181.010,54.632 181.010,54.632 C181.010,54.632 18.010,54.632 18.010,54.632 Z"/>
<path fill-rule="evenodd"  fill-opacity="0.161" fill="rgb( 29, 33, 37 )"
 d="M18.010,71.256 C18.010,71.256 18.010,70.258 18.010,70.258 C18.010,70.258 181.010,70.258 181.010,70.258 C181.010,70.258 181.010,71.256 181.010,71.256 C181.010,71.256 18.010,71.256 18.010,71.256 Z"/>
<path fill-rule="evenodd"  fill-opacity="0.161" fill="rgb( 29, 33, 37 )"
 d="M18.010,38.008 C18.010,38.008 18.010,37.010 18.010,37.010 C18.010,37.010 181.010,37.010 181.010,37.010 C181.010,37.010 181.010,38.008 181.010,38.008 C181.010,38.008 18.010,38.008 18.010,38.008 Z"/>
<path fill-rule="evenodd"  fill-opacity="0.161" fill="rgb( 29, 33, 37 )"
 d="M18.010,154.376 C18.010,154.376 18.010,153.379 18.010,153.379 C18.010,153.379 181.010,153.379 181.010,153.379 C181.010,153.379 181.010,154.376 181.010,154.376 C181.010,154.376 18.010,154.376 18.010,154.376 Z"/>
<path fill-rule="evenodd"  fill-opacity="0.161" fill="rgb( 29, 33, 37 )"
 d="M18.010,171.000 C18.010,171.000 18.010,170.003 18.010,170.003 C18.010,170.003 181.010,170.003 181.010,170.003 C181.010,170.003 181.010,171.000 181.010,171.000 C181.010,171.000 18.010,171.000 18.010,171.000 Z"/>
<path fill-rule="evenodd"  fill-opacity="0.161" fill="rgb( 29, 33, 37 )"
 d="M18.010,121.128 C18.010,121.128 18.010,120.131 18.010,120.131 C18.010,120.131 181.010,120.131 181.010,120.131 C181.010,120.131 181.010,121.128 181.010,121.128 C181.010,121.128 18.010,121.128 18.010,121.128 Z"/>
<path fill-rule="evenodd"  fill-opacity="0.161" fill="rgb( 29, 33, 37 )"
 d="M18.010,137.752 C18.010,137.752 18.010,136.755 18.010,136.755 C18.010,136.755 181.010,136.755 181.010,136.755 C181.010,136.755 181.010,137.752 181.010,137.752 C181.010,137.752 18.010,137.752 18.010,137.752 Z"/>
<path fill-rule="evenodd"  fill-opacity="0.251" fill="rgb( 29, 33, 37 )"
 d="M18.000,186.000 C18.000,186.000 18.000,117.294 18.000,117.294 C18.000,117.294 46.773,102.789 46.773,102.789 C46.773,102.789 65.333,105.667 65.333,105.667 C65.333,105.667 81.849,97.342 81.849,97.342 C81.849,97.342 112.333,106.333 112.333,106.333 C112.333,106.333 128.792,85.436 128.792,85.436 C128.792,85.436 181.000,56.317 181.000,56.317 C181.000,56.317 181.000,186.000 181.000,186.000 C181.000,186.000 18.000,186.000 18.000,186.000 Z"/>
<path fill-rule="evenodd"  fill="rgb( 29, 33, 37 )"
 d="M129.447,85.513 C129.447,85.513 112.862,107.073 112.862,107.073 C112.862,107.073 112.333,106.667 112.333,106.667 C112.333,106.667 112.139,107.304 112.139,107.304 C112.139,107.304 81.733,98.050 81.733,98.050 C81.733,98.050 65.589,106.445 65.589,106.445 C65.589,106.445 65.551,106.657 65.551,106.657 C65.551,106.657 46.522,103.036 46.522,103.036 C46.522,103.036 46.637,103.260 46.637,103.260 C46.637,103.260 18.303,117.594 18.303,117.594 C18.303,117.594 17.697,116.406 17.697,116.406 C17.697,116.406 46.030,102.073 46.030,102.073 C46.030,102.073 46.204,102.414 46.204,102.414 C46.204,102.414 46.115,102.010 46.115,102.010 C46.115,102.010 65.052,105.220 65.052,105.220 C65.052,105.220 82.000,96.333 82.000,96.333 C82.000,96.333 81.993,96.736 81.993,96.736 C81.993,96.736 112.086,105.895 112.086,105.895 C112.086,105.895 128.472,84.594 128.472,84.594 C128.472,84.594 129.000,85.000 129.000,85.000 C129.000,85.000 128.671,84.420 128.671,84.420 C128.671,84.420 180.671,54.754 180.671,54.754 C180.671,54.754 181.329,55.913 181.329,55.913 C181.329,55.913 129.447,85.513 129.447,85.513 Z"/>
<text font-family="DIN Condensed" fill="rgb( 255, 255, 255 )" transform="matrix( 0.33333333333333, 0, 0, 0.33333333333333,80.1588333333333, 170.333333333333)" font-weight="bold" font-size="150px">SLOC</text>
</svg>