<?xml version="1.0" encoding="utf-8"?>
<!DOCTYPE svg PUBLIC "-//W3C//DTD SVG 1.1//EN" "http://www.w3.org/Graphics/SVG/1.1/DTD/svg11.dtd">
<svg version="1.1" baseProfile="full"
 xmlns="http://www.w3.org/2000/svg"
 xmlns:xlink="http://www.w3.org/1999/xlink"
 xmlns:ev="http://www.w3.org/2001/xml-events" >
<path fill-rule="evenodd"  stroke="rgb( 0, 0, 0 )" stroke-width="2px" stroke-linecap="butt" stroke-linejoin="miter" fill-opacity="0.2" fill="rgb( 0, 0, 0 )"
 d="M21.000,17.000 C21.000,17.000 79.000,17.000 79.000,17.000 C81.209,17.000 83.000,18.791 83.000,21.000 C83.000,21.000 83.000,79.000 83.000,79.000 C83.000,81.209 81.209,83.000 79.000,83.000 C79.000,83.000 21.000,83.000 21.000,83.000 C18.791,83.000 17.000,81.209 17.000,79.000 C17.000,79.000 17.000,21.000 17.000,21.000 C17.000,18.791 18.791,17.000 21.000,17.000 Z"/>
<path fill-rule="evenodd"  stroke="rgb( 0, 0, 0 )" stroke-width="2px" stroke-linecap="butt" stroke-linejoin="miter" fill="rgb( 0, 0, 0 )"
 d="M45.000,43.843 C45.000,43.843 56.143,43.843 56.143,43.843 C56.143,43.843 56.143,55.059 56.143,55.059 C56.143,55.059 45.000,55.059 45.000,55.059 C45.000,55.059 45.000,43.843 45.000,43.843 Z"/>
<path fill-rule="evenodd"  stroke="rgb( 0, 0, 0 )" stroke-width="2px" stroke-linecap="butt" stroke-linejoin="miter" fill="rgb( 0, 0, 0 )"
 d="M65.000,43.843 C65.000,43.843 76.143,43.843 76.143,43.843 C76.143,43.843 76.143,55.059 76.143,55.059 C76.143,55.059 65.000,55.059 65.000,55.059 C65.000,55.059 65.000,43.843 65.000,43.843 Z"/>
<path fill-rule="evenodd"  stroke="rgb( 0, 0, 0 )" stroke-width="2px" stroke-linecap="butt" stroke-linejoin="miter" fill="rgb( 0, 0, 0 )"
 d="M65.000,62.843 C65.000,62.843 76.143,62.843 76.143,62.843 C76.143,62.843 76.143,74.059 76.143,74.059 C76.143,74.059 65.000,74.059 65.000,74.059 C65.000,74.059 65.000,62.843 65.000,62.843 Z"/>
<path fill-rule="evenodd"  stroke="rgb( 0, 0, 0 )" stroke-width="2px" stroke-linecap="butt" stroke-linejoin="miter" fill="rgb( 0, 0, 0 )"
 d="M25.000,44.314 C25.000,44.314 36.143,44.314 36.143,44.314 C36.143,44.314 36.143,55.529 36.143,55.529 C36.143,55.529 25.000,55.529 25.000,55.529 C25.000,55.529 25.000,44.314 25.000,44.314 Z"/>
<path fill-rule="evenodd"  stroke="rgb( 0, 0, 0 )" stroke-width="2px" stroke-linecap="butt" stroke-linejoin="miter" fill="rgb( 0, 0, 0 )"
 d="M25.000,25.314 C25.000,25.314 36.143,25.314 36.143,25.314 C36.143,25.314 36.143,36.529 36.143,36.529 C36.143,36.529 25.000,36.529 25.000,36.529 C25.000,36.529 25.000,25.314 25.000,25.314 Z"/>
<path fill-rule="evenodd"  stroke="rgb( 0, 0, 0 )" stroke-width="2px" stroke-linecap="butt" stroke-linejoin="miter" fill="rgb( 0, 0, 0 )"
 d="M45.429,62.784 C45.429,62.784 56.571,62.784 56.571,62.784 C56.571,62.784 56.571,74.000 56.571,74.000 C56.571,74.000 45.429,74.000 45.429,74.000 C45.429,74.000 45.429,62.784 45.429,62.784 Z"/>
<path fill-rule="evenodd"  stroke="rgb( 0, 0, 0 )" stroke-width="2px" stroke-linecap="butt" stroke-linejoin="miter" fill="rgb( 0, 0, 0 )"
 d="M44.714,25.000 C44.714,25.000 55.857,25.000 55.857,25.000 C55.857,25.000 55.857,36.216 55.857,36.216 C55.857,36.216 44.714,36.216 44.714,36.216 C44.714,36.216 44.714,25.000 44.714,25.000 Z"/>
<path fill-rule="evenodd"  stroke="rgb( 0, 0, 0 )" stroke-width="2px" stroke-linecap="butt" stroke-linejoin="miter" fill="rgb( 0, 0, 0 )"
 d="M54.000,50.000 C54.000,50.000 54.000,49.000 54.000,49.000 C54.000,49.000 73.000,49.000 73.000,49.000 C73.000,49.000 73.000,50.000 73.000,50.000 C73.000,50.000 54.000,50.000 54.000,50.000 ZM51.000,51.000 C51.000,51.000 52.000,51.000 52.000,51.000 C52.000,51.000 52.000,69.000 52.000,69.000 C52.000,69.000 51.000,69.000 51.000,69.000 C51.000,69.000 51.000,51.000 51.000,51.000 ZM33.000,50.000 C33.000,50.000 33.000,49.000 33.000,49.000 C33.000,49.000 50.000,49.000 50.000,49.000 C50.000,49.000 50.000,50.000 50.000,50.000 C50.000,50.000 33.000,50.000 33.000,50.000 ZM50.000,32.000 C50.000,32.000 51.000,32.000 51.000,32.000 C51.000,32.000 51.000,49.000 51.000,49.000 C51.000,49.000 50.000,49.000 50.000,49.000 C50.000,49.000 50.000,32.000 50.000,32.000 ZM30.000,33.000 C30.000,33.000 31.000,33.000 31.000,33.000 C31.000,33.000 31.000,49.000 31.000,49.000 C31.000,49.000 30.000,49.000 30.000,49.000 C30.000,49.000 30.000,33.000 30.000,33.000 Z"/>
<path fill-rule="evenodd"  stroke="rgb( 0, 0, 0 )" stroke-width="2px" stroke-linecap="butt" stroke-linejoin="miter" fill="rgb( 0, 0, 0 )"
 d="M70.000,51.000 C70.000,51.000 71.000,51.000 71.000,51.000 C71.000,51.000 71.000,68.000 71.000,68.000 C71.000,68.000 70.000,68.000 70.000,68.000 C70.000,68.000 70.000,51.000 70.000,51.000 Z"/>
</svg>