<?xml version="1.0" encoding="utf-8"?>
<!DOCTYPE svg PUBLIC "-//W3C//DTD SVG 1.1//EN" "http://www.w3.org/Graphics/SVG/1.1/DTD/svg11.dtd">
<svg version="1.1" baseProfile="full"
 xmlns="http://www.w3.org/2000/svg"
 xmlns:xlink="http://www.w3.org/1999/xlink"
 xmlns:ev="http://www.w3.org/2001/xml-events" >
<path fill-rule="evenodd"  stroke="rgb( 0, 0, 0 )" stroke-width="3px" stroke-linecap="butt" stroke-linejoin="miter" fill-opacity="0.2" fill="rgb( 0, 0, 0 )"
 d="M19.333,14.000 C19.333,14.000 180.000,14.000 180.000,14.000 C181.473,14.000 182.667,15.194 182.667,16.667 C182.667,16.667 182.667,184.000 182.667,184.000 C182.667,185.473 181.473,186.667 180.000,186.667 C180.000,186.667 19.333,186.667 19.333,186.667 C17.861,186.667 16.667,185.473 16.667,184.000 C16.667,184.000 16.667,16.667 16.667,16.667 C16.667,15.194 17.861,14.000 19.333,14.000 Z"/>
<path fill-rule="evenodd"  stroke="rgb( 0, 0, 0 )" stroke-width="2px" stroke-linecap="butt" stroke-linejoin="miter" fill-opacity="0.2" fill="rgb( 0, 0, 0 )"
 d="M40.667,39.000 C40.667,39.000 158.667,39.000 158.667,39.000 C159.403,39.000 160.000,39.597 160.000,40.333 C160.000,40.333 160.000,160.000 160.000,160.000 C160.000,160.736 159.403,161.333 158.667,161.333 C158.667,161.333 40.667,161.333 40.667,161.333 C39.930,161.333 39.333,160.736 39.333,160.000 C39.333,160.000 39.333,40.333 39.333,40.333 C39.333,39.597 39.930,39.000 40.667,39.000 Z"/>
<path fill-rule="evenodd"  fill="rgb( 0, 0, 0 )"
 d="M41.667,38.667 C41.667,38.667 157.333,38.667 157.333,38.667 C158.070,38.667 158.667,39.264 158.667,40.000 C158.667,40.000 158.667,47.333 158.667,47.333 C158.667,48.070 158.070,48.667 157.333,48.667 C157.333,48.667 41.667,48.667 41.667,48.667 C40.930,48.667 40.333,48.070 40.333,47.333 C40.333,47.333 40.333,40.000 40.333,40.000 C40.333,39.264 40.930,38.667 41.667,38.667 Z"/>
<path fill-rule="evenodd"  opacity="0.502" fill="rgb( 255, 255, 255 )"
 d="M58.333,45.667 C57.045,45.667 56.000,44.622 56.000,43.333 C56.000,42.045 57.045,41.000 58.333,41.000 C59.622,41.000 60.667,42.045 60.667,43.333 C60.667,44.622 59.622,45.667 58.333,45.667 ZM52.000,45.667 C50.711,45.667 49.667,44.622 49.667,43.333 C49.667,42.045 50.711,41.000 52.000,41.000 C53.289,41.000 54.333,42.045 54.333,43.333 C54.333,44.622 53.289,45.667 52.000,45.667 ZM45.667,45.667 C44.378,45.667 43.333,44.622 43.333,43.333 C43.333,42.045 44.378,41.000 45.667,41.000 C46.955,41.000 48.000,42.045 48.000,43.333 C48.000,44.622 46.955,45.667 45.667,45.667 Z"/>
<text font-family="DIN Condensed" fill="rgb( 255, 255, 255 )" transform="matrix( 0.33333333333333, 0, 0, 0.33333333333333,56.1333333333333, 128.333333333333)" font-weight="bold" font-size="200px">SPA</text>
</svg>