<?xml version="1.0" encoding="utf-8"?>
<!DOCTYPE svg PUBLIC "-//W3C//DTD SVG 1.1//EN" "http://www.w3.org/Graphics/SVG/1.1/DTD/svg11.dtd">
<svg version="1.1" baseProfile="full"
 xmlns="http://www.w3.org/2000/svg"
 xmlns:xlink="http://www.w3.org/1999/xlink"
 xmlns:ev="http://www.w3.org/2001/xml-events" >
<path fill-rule="evenodd"  stroke="rgb( 29, 33, 37 )" stroke-width="3px" stroke-linecap="butt" stroke-linejoin="miter" fill-opacity="0.2" fill="rgb( 29, 33, 37 )"
 d="M19.333,14.000 C19.333,14.000 180.000,14.000 180.000,14.000 C181.473,14.000 182.667,15.194 182.667,16.667 C182.667,16.667 182.667,184.000 182.667,184.000 C182.667,185.473 181.473,186.667 180.000,186.667 C180.000,186.667 19.333,186.667 19.333,186.667 C17.861,186.667 16.667,185.473 16.667,184.000 C16.667,184.000 16.667,16.667 16.667,16.667 C16.667,15.194 17.861,14.000 19.333,14.000 Z"/>
<path fill-rule="evenodd"  stroke="rgb( 29, 33, 37 )" stroke-width="0.96px" stroke-linecap="butt" stroke-linejoin="miter" fill-opacity="0.2" fill="rgb( 29, 33, 37 )"
 d="M40.667,138.000 C40.667,138.000 81.000,138.000 81.000,138.000 C81.736,138.000 82.333,138.597 82.333,139.333 C82.333,139.333 82.333,153.000 82.333,153.000 C82.333,153.736 81.736,154.333 81.000,154.333 C81.000,154.333 40.667,154.333 40.667,154.333 C39.930,154.333 39.333,153.736 39.333,153.000 C39.333,153.000 39.333,139.333 39.333,139.333 C39.333,138.597 39.930,138.000 40.667,138.000 Z"/>
<path fill-rule="evenodd"  stroke="rgb( 29, 33, 37 )" stroke-width="0.96px" stroke-linecap="butt" stroke-linejoin="miter" fill-opacity="0.2" fill="rgb( 29, 33, 37 )"
 d="M89.667,66.000 C89.667,66.000 159.333,66.000 159.333,66.000 C160.070,66.000 160.667,66.597 160.667,67.333 C160.667,67.333 160.667,153.000 160.667,153.000 C160.667,153.736 160.070,154.333 159.333,154.333 C159.333,154.333 89.667,154.333 89.667,154.333 C88.930,154.333 88.333,153.736 88.333,153.000 C88.333,153.000 88.333,67.333 88.333,67.333 C88.333,66.597 88.930,66.000 89.667,66.000 Z"/>
<path fill-rule="evenodd"  stroke="rgb( 29, 33, 37 )" stroke-width="0.96px" stroke-linecap="butt" stroke-linejoin="miter" fill-opacity="0.2" fill="rgb( 29, 33, 37 )"
 d="M40.667,114.000 C40.667,114.000 81.000,114.000 81.000,114.000 C81.736,114.000 82.333,114.597 82.333,115.333 C82.333,115.333 82.333,129.000 82.333,129.000 C82.333,129.736 81.736,130.333 81.000,130.333 C81.000,130.333 40.667,130.333 40.667,130.333 C39.930,130.333 39.333,129.736 39.333,129.000 C39.333,129.000 39.333,115.333 39.333,115.333 C39.333,114.597 39.930,114.000 40.667,114.000 Z"/>
<path fill-rule="evenodd"  stroke="rgb( 29, 33, 37 )" stroke-width="0.96px" stroke-linecap="butt" stroke-linejoin="miter" fill-opacity="0.2" fill="rgb( 29, 33, 37 )"
 d="M40.667,90.000 C40.667,90.000 81.000,90.000 81.000,90.000 C81.736,90.000 82.333,90.597 82.333,91.333 C82.333,91.333 82.333,105.000 82.333,105.000 C82.333,105.736 81.736,106.333 81.000,106.333 C81.000,106.333 40.667,106.333 40.667,106.333 C39.930,106.333 39.333,105.736 39.333,105.000 C39.333,105.000 39.333,91.333 39.333,91.333 C39.333,90.597 39.930,90.000 40.667,90.000 Z"/>
<path fill-rule="evenodd"  stroke="rgb( 29, 33, 37 )" stroke-width="0.96px" stroke-linecap="butt" stroke-linejoin="miter" fill-opacity="0.2" fill="rgb( 29, 33, 37 )"
 d="M40.667,66.000 C40.667,66.000 81.000,66.000 81.000,66.000 C81.736,66.000 82.333,66.597 82.333,67.333 C82.333,67.333 82.333,81.000 82.333,81.000 C82.333,81.736 81.736,82.333 81.000,82.333 C81.000,82.333 40.667,82.333 40.667,82.333 C39.930,82.333 39.333,81.736 39.333,81.000 C39.333,81.000 39.333,67.333 39.333,67.333 C39.333,66.597 39.930,66.000 40.667,66.000 Z"/>
<path fill-rule="evenodd"  stroke="rgb( 29, 33, 37 )" stroke-width="0.96px" stroke-linecap="butt" stroke-linejoin="miter" fill-opacity="0.2" fill="rgb( 29, 33, 37 )"
 d="M40.667,41.667 C40.667,41.667 159.333,41.667 159.333,41.667 C160.070,41.667 160.667,42.264 160.667,43.000 C160.667,43.000 160.667,56.667 160.667,56.667 C160.667,57.403 160.070,58.000 159.333,58.000 C159.333,58.000 40.667,58.000 40.667,58.000 C39.930,58.000 39.333,57.403 39.333,56.667 C39.333,56.667 39.333,43.000 39.333,43.000 C39.333,42.264 39.930,41.667 40.667,41.667 Z"/>
<text font-family="DIN Condensed" fill="rgb( 255, 255, 255 )" transform="matrix( 0.33333333333333, 0, 0, 0.33333333333333,96.433, 134)" font-weight="bold" font-size="200px">UX</text>
</svg>