<?xml version="1.0" encoding="utf-8"?>
<!DOCTYPE svg PUBLIC "-//W3C//DTD SVG 1.1//EN" "http://www.w3.org/Graphics/SVG/1.1/DTD/svg11.dtd">
<svg version="1.1" baseProfile="full"
 xmlns="http://www.w3.org/2000/svg"
 xmlns:xlink="http://www.w3.org/1999/xlink"
 xmlns:ev="http://www.w3.org/2001/xml-events" >
<path fill-rule="evenodd"  stroke="rgb( 0, 0, 0 )" stroke-width="3px" stroke-linecap="butt" stroke-linejoin="miter" fill-opacity="0.2" fill="rgb( 0, 0, 0 )"
 d="M20.808,4.000 C20.808,4.000 79.384,4.000 79.384,4.000 C81.593,4.000 83.384,5.791 83.384,8.000 C83.384,8.000 83.384,92.000 83.384,92.000 C83.384,94.209 81.593,96.000 79.384,96.000 C79.384,96.000 20.808,96.000 20.808,96.000 C18.599,96.000 16.808,94.209 16.808,92.000 C16.808,92.000 16.808,8.000 16.808,8.000 C16.808,5.791 18.599,4.000 20.808,4.000 Z"/>
<path fill-rule="evenodd"  fill-opacity="0.141" fill="rgb( 255, 255, 255 )"
 d="M71.370,89.208 C71.370,89.208 51.644,89.208 51.644,89.208 C51.644,89.208 48.863,89.208 48.863,89.208 C48.863,89.208 29.438,89.208 29.438,89.208 C27.229,89.208 25.438,87.417 25.438,85.208 C25.438,85.208 25.438,75.919 25.438,75.919 C25.438,73.710 27.229,71.919 29.438,71.919 C29.438,71.919 48.863,71.919 48.863,71.919 C48.863,71.919 48.863,71.887 48.863,71.887 C49.273,71.902 49.682,71.919 50.096,71.919 C60.067,71.919 69.032,67.607 75.236,60.743 C75.315,61.057 75.370,61.380 75.370,61.718 C75.370,61.718 75.370,85.208 75.370,85.208 C75.370,87.417 73.579,89.208 71.370,89.208 Z"/>
<path fill-rule="evenodd"  fill-opacity="0.502" fill="rgb( 0, 0, 0 )"
 d="M50.404,65.745 C35.254,65.745 22.973,53.443 22.973,38.268 C22.973,23.094 35.254,10.792 50.404,10.792 C65.554,10.792 77.836,23.094 77.836,38.268 C77.836,53.443 65.554,65.745 50.404,65.745 ZM50.712,34.255 C48.670,34.255 47.014,35.914 47.014,37.960 C47.014,40.006 48.670,41.664 50.712,41.664 C52.755,41.664 54.411,40.006 54.411,37.960 C54.411,35.914 52.755,34.255 50.712,34.255 Z"/>
<path fill-rule="evenodd"  fill="rgb( 0, 0, 0 )"
 d="M30.759,67.572 C30.759,67.572 57.446,47.692 57.446,47.692 C57.446,47.692 37.055,75.942 37.055,75.942 C37.055,75.942 36.930,75.826 36.930,75.826 C35.697,77.107 33.858,77.740 32.001,77.314 C29.183,76.667 27.422,73.853 28.069,71.029 C28.271,70.144 28.704,69.380 29.266,68.745 C29.266,68.745 29.230,68.712 29.230,68.712 C29.230,68.712 29.418,68.572 29.418,68.572 C29.810,68.166 30.262,67.833 30.759,67.572 Z"/>
</svg>