<?xml version="1.0" encoding="utf-8"?>
<!DOCTYPE svg PUBLIC "-//W3C//DTD SVG 1.1//EN" "http://www.w3.org/Graphics/SVG/1.1/DTD/svg11.dtd">
<svg version="1.1" baseProfile="full"
 xmlns="http://www.w3.org/2000/svg"
 xmlns:xlink="http://www.w3.org/1999/xlink"
 xmlns:ev="http://www.w3.org/2001/xml-events" 
 width="1000"
 height="206">
<path fill-rule="evenodd"  fill="rgb( 51, 136, 255 )"
 d="M240.797,34.008 C240.797,34.008 209.724,34.008 209.724,34.008 C209.724,34.008 209.724,114.626 209.724,114.626 C209.724,138.607 200.100,149.889 183.744,149.889 C167.800,149.889 158.575,138.002 158.575,114.626 C158.575,114.626 158.575,34.008 158.575,34.008 C158.575,34.008 127.526,34.008 127.526,34.008 C127.526,34.008 127.526,112.209 127.526,112.209 C127.526,155.530 147.971,174.585 182.724,174.585 C218.704,174.585 240.797,154.526 240.797,112.613 C240.797,112.613 240.797,34.008 240.797,34.008 M531.280,148.726 C529.970,143.858 528.610,138.779 527.249,133.932 C523.711,121.237 518.302,112.029 508.527,108.140 C508.527,108.140 508.527,107.526 508.527,107.526 C517.710,104.255 527.244,96.476 531.280,85.189 C531.280,85.189 531.280,148.726 531.280,148.726 M653.427,114.362 C653.427,114.362 661.550,84.804 661.550,84.804 C663.782,76.818 666.155,66.378 668.186,58.187 C668.186,58.187 668.594,58.187 668.594,58.187 C670.624,66.378 672.716,76.612 675.154,84.804 C675.154,84.804 683.685,114.362 683.685,114.362 C683.685,114.362 653.427,114.362 653.427,114.362 M463.692,96.133 C463.692,96.133 463.692,57.985 463.692,57.985 C465.980,57.573 470.869,56.959 478.567,56.959 C493.128,57.165 501.869,63.510 501.869,76.204 C501.869,88.280 492.506,96.133 476.694,96.133 C476.694,96.133 464.211,96.133 464.211,96.133 M867.273,33.991 C867.273,33.991 826.559,33.991 826.559,33.991 C826.559,33.991 811.826,80.587 811.826,80.587 C807.322,95.940 802.617,114.158 798.728,130.128 C798.728,130.128 798.114,130.128 798.114,130.128 C795.048,113.957 790.751,96.553 786.454,80.789 C786.454,80.789 772.948,33.934 772.948,33.934 C772.948,33.934 731.414,33.934 731.414,33.934 C731.414,33.934 724.219,147.515 724.219,147.515 C724.219,147.515 689.570,33.959 689.570,33.959 C689.570,33.959 648.963,33.959 648.963,33.959 C648.963,33.959 614.890,147.240 614.890,147.240 C614.890,147.240 562.351,147.240 562.351,147.240 C562.351,147.240 562.351,114.313 562.351,114.313 C562.351,114.313 613.539,114.313 613.539,114.313 C613.539,114.313 613.539,88.815 613.539,88.815 C613.539,88.815 562.351,88.815 562.351,88.815 C562.351,88.815 562.351,59.584 562.351,59.584 C562.351,59.584 617.179,59.584 617.179,59.584 C617.179,59.584 617.179,33.977 617.179,33.977 C617.179,33.977 531.280,33.977 531.280,33.977 C531.280,33.977 531.280,60.230 531.280,60.230 C529.189,53.889 525.497,48.700 520.384,44.677 C510.399,36.898 495.833,34.000 475.029,34.000 C459.801,34.000 318.215,34.000 304.550,34.000 C271.523,34.000 251.579,50.987 251.579,74.251 C251.579,94.072 266.744,106.612 290.008,114.502 C306.835,120.366 313.482,125.222 313.482,133.717 C313.482,142.616 305.797,148.481 291.255,148.481 C277.754,148.481 262.715,147.640 247.439,147.640 C242.822,160.188 236.125,167.838 227.453,173.543 C260.237,173.543 273.392,173.728 289.386,173.728 C327.814,173.728 345.886,154.349 345.886,131.494 C345.886,112.274 334.254,99.734 309.535,90.835 C291.463,84.159 283.568,80.613 283.568,71.916 C283.568,64.833 290.217,61.265 303.926,61.265 C317.638,61.265 311.310,61.334 335.235,61.334 C335.235,61.334 370.526,61.334 370.526,61.334 C370.526,61.334 370.526,172.827 370.526,172.827 C370.526,172.827 401.597,172.827 401.597,172.827 C401.597,172.827 401.597,61.334 401.597,61.334 C401.597,61.334 432.623,61.334 432.623,61.334 C432.623,61.334 432.623,172.827 432.623,172.827 C432.623,172.827 463.692,172.827 463.692,172.827 C463.692,172.827 463.692,117.983 463.692,117.983 C463.692,117.983 473.784,117.983 473.784,117.983 C485.717,117.983 492.712,123.491 496.459,140.689 C500.624,157.681 503.946,168.735 506.239,172.827 C506.239,172.827 639.218,172.827 639.218,172.827 C639.218,172.827 648.963,138.129 648.963,138.129 C648.963,138.129 688.149,138.129 688.149,138.129 C688.149,138.129 698.706,172.827 698.706,172.827 C698.706,172.827 751.466,172.827 751.466,172.827 C751.466,172.827 753.918,120.302 753.918,120.302 C754.944,103.109 755.558,81.816 756.378,63.188 C756.378,63.188 756.786,63.188 756.786,63.188 C760.056,81.202 764.762,100.855 769.265,117.233 C769.265,117.233 783.999,171.028 783.999,171.028 C783.999,171.028 808.348,171.028 808.348,171.028 C808.348,171.028 825.125,116.614 825.125,116.614 C830.444,100.447 836.175,80.789 840.473,63.188 C840.473,63.188 841.087,63.188 841.087,63.188 C841.087,83.249 841.700,103.310 842.314,119.894 C842.314,119.894 844.358,172.827 844.358,172.827 C844.358,172.827 874.847,172.827 874.847,172.827 C874.847,172.827 867.273,33.991 867.273,33.991 "/>
</svg>